<?xml version="1.0" encoding="UTF-8"?>
<svg width="116px" height="27px" viewBox="0 0 116 27" version="1.1" xmlns="http://www.w3.org/2000/svg" xmlns:xlink="http://www.w3.org/1999/xlink">
    <!-- Generator: Sketch 48.1 (47250) - http://www.bohemiancoding.com/sketch -->
    <title>logo-witout-ua</title>
    <desc>Created with Sketch.</desc>
    <defs>
        <path d="M14.1330103,0 C43.5855345,0.00557409361 73.0352715,-0.00278704681 102.487796,0.00557409361 C105.537011,-0.00836114042 108.575078,1.05350369 110.949787,2.9654178 C114.074258,5.44588946 116.022522,9.37005137 115.997438,13.3722506 C116.064331,16.669327 114.818445,19.9608292 112.624905,22.4190045 C110.110835,25.303598 106.323007,26.973039 102.504519,26.9897613 C73.9745637,26.9981224 45.4446084,26.9897613 16.9146531,26.9925483 C14.5092846,26.975826 12.0481718,27.15141 9.71527104,26.4295649 C5.34491446,25.1837549 1.74104262,21.5773164 0.525815918,17.1932918 C-0.41347628,14.0327807 -0.0706485643,10.5601204 1.3647683,7.60027664 C3.20711887,3.74857796 6.9865854,0.905790212 11.2008578,0.20066737 C12.1680222,0.0362316085 13.1546971,0 14.1330103,0 Z" id="path-1"></path>
    </defs>
    <g id="Desktop-HD" stroke="none" stroke-width="1" fill="none" fill-rule="evenodd" transform="translate(-92.000000, -22.000000)">
        <g id="logo-witout-ua" transform="translate(92.000000, 22.000000)">
            <g id="Group-26">
                <mask id="mask-2" fill="white">
                    <use xlink:href="#path-1"></use>
                </mask>
                <use id="Path" fill="#43B02A" xlink:href="#path-1"></use>
                <g id="Group-24" mask="url(#mask-2)">
                    <g transform="translate(6.413462, 5.010309)">
                        <path d="M93.7017182,1.38254217 C97.1326397,0.383466647 101.060511,2.25533006 102.489594,5.51635747 C103.531224,7.7277943 103.371189,10.4359625 102.085295,12.5154989 C100.703943,14.8448042 97.9805433,16.3209664 95.2683747,16.1273253 C91.7532244,16.0403272 88.608681,13.1188732 88.1959597,9.6389472 C87.6260112,6.01589523 90.1444535,2.25813645 93.7017182,1.38254217 Z" id="Shape" fill="#FF671F" fill-rule="nonzero"></path>
                        <g id="Group-2" stroke-width="1" fill="none" fill-rule="evenodd">
                            <path d="M7.25326936,0.115116303 C10.5413438,-0.458285759 14.0879059,1.15336373 15.8417309,3.99253898 C16.6894593,5.37594104 15.4498302,7.44130187 13.8099622,7.20748744 C12.8871889,7.32717816 12.2368006,6.60068331 11.7420607,5.93264208 C10.5357849,4.4351163 8.2455285,4.04542558 6.59176326,5.01130187 C4.92132138,5.90759053 3.97631267,8.09820909 4.66561314,9.89913692 C5.18536794,11.6443947 6.99756112,12.935941 8.82365148,12.7550132 C10.2967533,12.8190338 11.4224254,11.7446008 12.3424192,10.736972 C13.5653717,9.55398228 15.8000393,10.5616111 15.905658,12.2066627 C16.0752036,13.6596524 14.7827652,14.6811988 13.7905061,15.5162503 C10.5413438,18.0715081 5.48832661,17.7402709 2.58937341,14.7953225 C-0.376286283,12.0146008 -0.871026139,7.06831218 1.50261339,3.76150806 C2.81450784,1.82697197 4.94911576,0.490889498 7.25326936,0.115116303 Z" id="Shape" fill="#FFFFFF" fill-rule="nonzero"></path>
                            <path d="M23.8100569,0.156697372 C28.221024,-0.759075824 32.9377293,2.45030562 33.7437661,6.88164583 C34.8694382,11.4605118 31.4284948,16.448553 26.7923932,17.1305118 C22.4620297,17.9961819 17.856502,14.9398932 16.9392876,10.6226768 C15.6802025,6.0020582 19.1072488,0.874841702 23.8100569,0.156697372 Z M24.6383292,4.55463552 C22.6010016,4.85247057 21.0028251,6.84267675 21.186268,8.90247057 C21.2696511,11.009584 23.2096984,12.894017 25.3387474,12.7687592 C27.6818132,12.8856664 29.7163613,10.5920582 29.4467559,8.28174892 C29.3105635,5.96030562 26.9174679,4.08979016 24.6383292,4.55463552 Z" id="Shape" fill="#FFFFFF" fill-rule="nonzero"></path>
                            <path d="M35.3110847,2.18083227 C35.2360399,0.482894128 37.4762664,-0.64999247 38.7881609,0.449492067 C40.6142512,2.13072918 42.3152669,3.95392506 44.0857685,5.69361578 C45.7840048,4.01516217 47.4516672,2.3033065 49.1610212,0.635986912 C49.7863946,0.0152652624 50.812007,-0.196281129 51.6097056,0.204543613 C52.457434,0.583100314 52.9966448,1.53505908 52.9521738,2.45639928 C52.9438355,6.65114155 52.9577327,10.8458838 52.9438355,15.0406261 C52.9605121,16.3377395 51.6903092,17.4650591 50.4006503,17.2451622 C49.325008,17.128255 48.4494853,16.1289766 48.4689413,15.0461931 C48.4522647,12.582791 48.4633824,10.1166055 48.4689413,7.65320341 C47.4989177,8.58846114 46.553909,9.55155392 45.5922236,10.4951622 C44.8528933,11.2133065 43.6327203,11.3107292 42.8127862,10.6677395 C41.7065701,9.76031681 40.8060324,8.63021372 39.7415079,7.66990444 C39.7109341,10.1639251 39.7665228,12.6579457 39.716493,15.1491828 C39.7220518,16.4490797 38.3573481,17.5123787 37.1010424,17.2256776 C36.0809889,17.0503168 35.2138044,16.070523 35.3055258,15.012791 C35.3027464,10.7345436 35.2916286,6.4590797 35.3110847,2.18083227 Z" id="Shape" fill="#FFFFFF" fill-rule="nonzero"></path>
                            <path d="M54.7767753,2.26113322 C54.7350838,1.0057724 55.8941092,-0.0714440987 57.1309588,0.00371054051 C60.1077362,0.00927755082 63.0845137,-0.00185646979 66.0612911,0.00927755082 C66.8784457,0.00927755082 67.6733648,0.518658994 68.0374711,1.25072085 C68.7517865,2.5172157 67.8123367,4.38773116 66.3225583,4.42391673 C63.9628159,4.48237033 61.5975147,4.42948374 59.2377723,4.44896827 C59.2349929,5.36195796 59.2349929,6.27773116 59.2377723,7.19072085 C61.2306289,7.19907137 63.2234856,7.18237033 65.2163422,7.19350435 C66.6199581,7.14061776 67.8790432,8.59360745 67.4760248,9.97700951 C67.2536698,11.0069064 66.2391751,11.7417518 65.1996655,11.6972157 C63.2123678,11.7111332 61.2250701,11.6916487 59.2377723,11.6999992 C59.2183163,12.8774219 59.2711256,14.0548446 59.2183163,15.2294837 C59.1460509,16.5878343 57.6312575,17.6038136 56.3471575,17.1556693 C55.7106663,17.0081435 55.3104273,16.4625765 54.9240855,15.9838136 C54.660039,14.7423703 54.7906725,13.4703085 54.7656576,12.2149477 C54.7739959,8.89700951 54.7434221,5.57907137 54.7767753,2.26113322 Z" id="Shape" fill="#FFFFFF" fill-rule="nonzero"></path>
                            <path d="M69.2302145,2.47414078 C69.0023006,1.00445006 70.5699033,-0.353900456 71.9846369,0.0831098534 C72.9629989,0.367027379 73.5244453,1.28001707 74.2443195,1.92857377 C75.3421973,2.96125418 76.3511331,4.08857377 77.462908,5.11290367 C79.0166135,3.60981088 80.506392,2.04269748 82.0656564,0.545171709 C82.9328408,-0.245343755 84.3725894,-0.128436538 85.1341552,0.753934596 C85.9235155,1.58341913 85.9040594,3.00857377 85.0785665,3.80465625 C83.2886088,5.62228511 81.4625185,7.40651192 79.6781196,9.2324913 C79.6725608,11.1670274 79.705914,13.1015635 79.6697813,15.0360995 C79.7198112,16.074347 78.8887594,17.0318727 77.8853825,17.2128006 C76.579047,17.5189861 75.1531956,16.3693985 75.2476964,15.0138315 C75.2282404,13.0876459 75.2476964,11.1614604 75.2421376,9.2352748 C73.8051684,7.721048 72.2792573,6.29032635 70.8339499,4.78445006 C70.1835615,4.11362532 69.2635677,3.50682119 69.2302145,2.47414078 Z" id="Shape" fill="#FFFFFF" fill-rule="nonzero"></path>
                        </g>
                    </g>
                </g>
            </g>
        </g>
    </g>
</svg>
